# xmcd
#
# Track frame offsets: 
#        150
#        18525
#        36097
#        54345
#        68960
#        82345
#        98582
#        114015
#        130750
#        146912
#
# Disc length: 2201 seconds
#
# Revision: 0
# Processed by: cddbd v1.5.1PL2 Copyright (c) Steve Scherf et al.
# Submitted via: ExactAudioCopy v0.95b4
#
DISCID=8408970a
DTITLE=วัฒนา  อนันต์ - ฟ้าผ่าบางแสน
DYEAR=1900
DGENRE=Country
TTITLE0=ฟ้าผ่าบางแสน
TTITLE1=ปลาย่างข้างแมว
TTITLE2=ตังเกชวดรัก
TTITLE3=ขาวสวยหมวยใส
TTITLE4=หนุ่มใต้พ่ายรัก
TTITLE5=ขาดคนนอนอ้อน
TTITLE6=บ่ลืมเสียงแคน
TTITLE7=รักคนที่มีเจ้าของ
TTITLE8=วันเกิดวันแต่ง
TTITLE9=เช้งวับ
EXTD=
EXTT0=
EXTT1=
EXTT2=
EXTT3=
EXTT4=
EXTT5=
EXTT6=
EXTT7=
EXTT8=
EXTT9=
PLAYORDER=
